<mxfile host="app.diagrams.net" modified="2022-11-06T08:15:37.213Z" agent="5.0 (Windows NT 10.0; Win64; x64) AppleWebKit/537.36 (KHTML, like Gecko) Chrome/105.0.0.0 Safari/537.36" etag="3mi7jf_m4iJ38suNnakQ" version="20.5.1" type="github">
  <diagram id="CyIgFXOa9rnpcJ_Aqr43" name="第 1 页">
    <mxGraphModel dx="1002" dy="706" grid="1" gridSize="10" guides="1" tooltips="1" connect="1" arrows="1" fold="1" page="1" pageScale="1" pageWidth="827" pageHeight="1169" math="0" shadow="0">
      <root>
        <mxCell id="0" />
        <mxCell id="1" parent="0" />
        <mxCell id="fidi1Q19Gw6rvUDOyK1Q-1" value="" style="rounded=0;whiteSpace=wrap;html=1;" vertex="1" parent="1">
          <mxGeometry x="90" y="80" width="460" height="510" as="geometry" />
        </mxCell>
        <mxCell id="fidi1Q19Gw6rvUDOyK1Q-7" value="" style="rounded=1;whiteSpace=wrap;html=1;fillColor=#f5f5f5;fontColor=#333333;strokeColor=#666666;" vertex="1" parent="1">
          <mxGeometry x="110" y="130" width="190" height="240" as="geometry" />
        </mxCell>
        <mxCell id="fidi1Q19Gw6rvUDOyK1Q-2" value="事务开始" style="rounded=1;whiteSpace=wrap;html=1;fillColor=#FFCC99;" vertex="1" parent="1">
          <mxGeometry x="139" y="170" width="120" height="40" as="geometry" />
        </mxCell>
        <mxCell id="fidi1Q19Gw6rvUDOyK1Q-3" value="线程" style="text;html=1;strokeColor=none;fillColor=none;align=center;verticalAlign=middle;whiteSpace=wrap;rounded=0;" vertex="1" parent="1">
          <mxGeometry x="125" y="130" width="160" height="30" as="geometry" />
        </mxCell>
        <mxCell id="fidi1Q19Gw6rvUDOyK1Q-4" value="写入binlog cache" style="rounded=1;whiteSpace=wrap;html=1;fillColor=#dae8fc;strokeColor=#6c8ebf;" vertex="1" parent="1">
          <mxGeometry x="139" y="240" width="120" height="40" as="geometry" />
        </mxCell>
        <mxCell id="fidi1Q19Gw6rvUDOyK1Q-5" value="事务提交" style="rounded=1;whiteSpace=wrap;html=1;fillColor=#FFCC99;" vertex="1" parent="1">
          <mxGeometry x="139" y="310" width="120" height="40" as="geometry" />
        </mxCell>
        <mxCell id="fidi1Q19Gw6rvUDOyK1Q-6" value="文件系统缓存page cache" style="rounded=1;whiteSpace=wrap;html=1;fillColor=#d5e8d4;strokeColor=#82b366;" vertex="1" parent="1">
          <mxGeometry x="100" y="420" width="440" height="40" as="geometry" />
        </mxCell>
        <mxCell id="fidi1Q19Gw6rvUDOyK1Q-8" value="执行事务" style="text;html=1;align=center;verticalAlign=middle;resizable=0;points=[];autosize=1;strokeColor=none;fillColor=none;" vertex="1" parent="1">
          <mxGeometry x="115" y="35" width="70" height="30" as="geometry" />
        </mxCell>
        <mxCell id="fidi1Q19Gw6rvUDOyK1Q-15" value="磁盘binlog文件" style="ellipse;whiteSpace=wrap;html=1;fillColor=#FFCC99;" vertex="1" parent="1">
          <mxGeometry x="257" y="510" width="126" height="50" as="geometry" />
        </mxCell>
        <mxCell id="fidi1Q19Gw6rvUDOyK1Q-17" value="" style="endArrow=classic;html=1;rounded=0;exitX=0.5;exitY=1;exitDx=0;exitDy=0;" edge="1" parent="1" source="fidi1Q19Gw6rvUDOyK1Q-2" target="fidi1Q19Gw6rvUDOyK1Q-4">
          <mxGeometry width="50" height="50" relative="1" as="geometry">
            <mxPoint x="390" y="360" as="sourcePoint" />
            <mxPoint x="440" y="310" as="targetPoint" />
          </mxGeometry>
        </mxCell>
        <mxCell id="fidi1Q19Gw6rvUDOyK1Q-18" value="" style="endArrow=classic;html=1;rounded=0;exitX=0.5;exitY=1;exitDx=0;exitDy=0;entryX=0.5;entryY=0;entryDx=0;entryDy=0;" edge="1" parent="1" source="fidi1Q19Gw6rvUDOyK1Q-4" target="fidi1Q19Gw6rvUDOyK1Q-5">
          <mxGeometry width="50" height="50" relative="1" as="geometry">
            <mxPoint x="209" y="220" as="sourcePoint" />
            <mxPoint x="209" y="250" as="targetPoint" />
          </mxGeometry>
        </mxCell>
        <mxCell id="fidi1Q19Gw6rvUDOyK1Q-19" value="" style="rounded=1;whiteSpace=wrap;html=1;fillColor=#f5f5f5;fontColor=#333333;strokeColor=#666666;" vertex="1" parent="1">
          <mxGeometry x="330" y="130" width="190" height="240" as="geometry" />
        </mxCell>
        <mxCell id="fidi1Q19Gw6rvUDOyK1Q-20" value="事务开始" style="rounded=1;whiteSpace=wrap;html=1;fillColor=#FFCC99;" vertex="1" parent="1">
          <mxGeometry x="359" y="170" width="120" height="40" as="geometry" />
        </mxCell>
        <mxCell id="fidi1Q19Gw6rvUDOyK1Q-21" value="线程" style="text;html=1;strokeColor=none;fillColor=none;align=center;verticalAlign=middle;whiteSpace=wrap;rounded=0;" vertex="1" parent="1">
          <mxGeometry x="345" y="130" width="160" height="30" as="geometry" />
        </mxCell>
        <mxCell id="fidi1Q19Gw6rvUDOyK1Q-22" value="写入binlog cache" style="rounded=1;whiteSpace=wrap;html=1;fillColor=#dae8fc;strokeColor=#6c8ebf;" vertex="1" parent="1">
          <mxGeometry x="359" y="240" width="120" height="40" as="geometry" />
        </mxCell>
        <mxCell id="fidi1Q19Gw6rvUDOyK1Q-23" value="事务提交" style="rounded=1;whiteSpace=wrap;html=1;fillColor=#FFCC99;" vertex="1" parent="1">
          <mxGeometry x="359" y="310" width="120" height="40" as="geometry" />
        </mxCell>
        <mxCell id="fidi1Q19Gw6rvUDOyK1Q-24" value="" style="endArrow=classic;html=1;rounded=0;exitX=0.5;exitY=1;exitDx=0;exitDy=0;" edge="1" parent="1" source="fidi1Q19Gw6rvUDOyK1Q-20" target="fidi1Q19Gw6rvUDOyK1Q-22">
          <mxGeometry width="50" height="50" relative="1" as="geometry">
            <mxPoint x="610" y="360" as="sourcePoint" />
            <mxPoint x="660" y="310" as="targetPoint" />
          </mxGeometry>
        </mxCell>
        <mxCell id="fidi1Q19Gw6rvUDOyK1Q-25" value="" style="endArrow=classic;html=1;rounded=0;exitX=0.5;exitY=1;exitDx=0;exitDy=0;entryX=0.5;entryY=0;entryDx=0;entryDy=0;" edge="1" parent="1" source="fidi1Q19Gw6rvUDOyK1Q-22" target="fidi1Q19Gw6rvUDOyK1Q-23">
          <mxGeometry width="50" height="50" relative="1" as="geometry">
            <mxPoint x="429" y="220" as="sourcePoint" />
            <mxPoint x="429" y="250" as="targetPoint" />
          </mxGeometry>
        </mxCell>
        <mxCell id="fidi1Q19Gw6rvUDOyK1Q-26" value="" style="endArrow=classic;html=1;rounded=0;exitX=0.5;exitY=1;exitDx=0;exitDy=0;entryX=0.5;entryY=0;entryDx=0;entryDy=0;" edge="1" parent="1" target="fidi1Q19Gw6rvUDOyK1Q-29">
          <mxGeometry width="50" height="50" relative="1" as="geometry">
            <mxPoint x="191" y="377" as="sourcePoint" />
            <mxPoint x="191" y="407" as="targetPoint" />
          </mxGeometry>
        </mxCell>
        <mxCell id="fidi1Q19Gw6rvUDOyK1Q-27" value="" style="endArrow=classic;html=1;rounded=0;exitX=0.5;exitY=1;exitDx=0;exitDy=0;entryX=0.5;entryY=0;entryDx=0;entryDy=0;" edge="1" parent="1" target="fidi1Q19Gw6rvUDOyK1Q-28">
          <mxGeometry width="50" height="50" relative="1" as="geometry">
            <mxPoint x="413" y="378" as="sourcePoint" />
            <mxPoint x="413" y="408" as="targetPoint" />
          </mxGeometry>
        </mxCell>
        <mxCell id="fidi1Q19Gw6rvUDOyK1Q-28" value="write" style="text;html=1;strokeColor=none;fillColor=none;align=center;verticalAlign=middle;whiteSpace=wrap;rounded=0;" vertex="1" parent="1">
          <mxGeometry x="383" y="393" width="60" height="30" as="geometry" />
        </mxCell>
        <mxCell id="fidi1Q19Gw6rvUDOyK1Q-29" value="write" style="text;html=1;strokeColor=none;fillColor=none;align=center;verticalAlign=middle;whiteSpace=wrap;rounded=0;" vertex="1" parent="1">
          <mxGeometry x="161" y="392" width="60" height="30" as="geometry" />
        </mxCell>
        <mxCell id="fidi1Q19Gw6rvUDOyK1Q-30" value="" style="endArrow=classic;html=1;rounded=0;entryX=0.5;entryY=0;entryDx=0;entryDy=0;exitX=0.5;exitY=1;exitDx=0;exitDy=0;" edge="1" parent="1" source="fidi1Q19Gw6rvUDOyK1Q-6" target="fidi1Q19Gw6rvUDOyK1Q-15">
          <mxGeometry width="50" height="50" relative="1" as="geometry">
            <mxPoint x="310" y="460" as="sourcePoint" />
            <mxPoint x="360" y="410" as="targetPoint" />
          </mxGeometry>
        </mxCell>
        <mxCell id="fidi1Q19Gw6rvUDOyK1Q-31" value="fsync" style="text;html=1;strokeColor=none;fillColor=none;align=center;verticalAlign=middle;whiteSpace=wrap;rounded=0;" vertex="1" parent="1">
          <mxGeometry x="323" y="470" width="60" height="30" as="geometry" />
        </mxCell>
      </root>
    </mxGraphModel>
  </diagram>
</mxfile>
